#!OML:ASF F:\VICON\USERDATA\INSTALL\rory3\rory3.ASF
:FULLY-SPECIFIED
:DEGREES
3158
root -1.10579 17.8846 2.64517 -5.34523 5.72783 6.48915
lowerback 14.2389 -2.46034 -7.56281
upperback 3.46616 -4.34858 -0.280981
thorax -3.74067 -2.10436 4.69162
lowerneck -11.2622 -1.24401 -6.94918
upperneck 2.68526 -1.01229 5.49023
head 2.98848 -0.381879 3.03572
rclavicle 7.95139e-016 1.19271e-014
rhumerus -19.5085 -20.3415 -45.6333
rradius 101.184
rwrist -25.345
rhand -19.3471 9.17873
rfingers 7.12502
rthumb 6.97013 -20.6865
lclavicle 7.95139e-016 1.19271e-014
lhumerus 41.0264 16.5853 76.0736
lradius 123.571
lwrist 38.2208
lhand -22.407 15.3613
lfingers 7.12502
lthumb 4.01574 45.3032
rfemur -35.5908 8.19497 2.3293
rtibia 77.6826
rfoot -9.98285 -7.61917
rtoes -11.8892
lfemur -12.5965 9.60459 -28.254
ltibia 41.5864
lfoot -19.5533 2.18429
ltoes 7.33538
3159
root -1.06543 17.8875 2.61369 -5.18598 6.22877 6.00929
lowerback 14.4984 -2.66745 -7.154
upperback 3.45081 -4.57532 -0.121395
thorax -3.88798 -2.21157 4.68483
lowerneck -11.1878 -1.25325 -6.88886
upperneck 2.56556 -1.03552 5.50443
head 2.93393 -0.392159 3.02504
rclavicle 2.81777e-014 -5.56597e-015
rhumerus -19.8943 -20.8841 -45.1012
rradius 100.094
rwrist -25.3961
rhand -19.2262 9.05968
rfingers 7.12502
rthumb 7.08682 -20.8017
lclavicle 2.81777e-014 -5.56597e-015
lhumerus 40.9839 16.03 76.4843
lradius 123.562
lwrist 37.8851
lhand -22.3515 15.1964
lfingers 7.12502
lthumb 4.06932 45.1373
rfemur -36.8071 7.45874 2.58971
rtibia 79.1352
rfoot -10.2155 -7.28406
rtoes -12.5806
lfemur -13.0073 9.31761 -27.9664
ltibia 41.7243
lfoot -19.4033 1.97232
ltoes 7.7643
3160
root -1.02724 17.888 2.5821 -4.93943 6.70819 5.59422
lowerback 14.719 -2.85999 -6.79084
upperback 3.40714 -4.78604 0.0169982
thorax -4.04575 -2.30967 4.67889
lowerneck -11.2809 -1.25444 -6.87342
upperneck 2.54694 -1.04013 5.62602
head 2.94764 -0.388427 3.06511
rclavicle 4.45775e-014 1.11319e-014
rhumerus -20.3134 -21.4068 -44.5549
rradius 99.0211
rwrist -25.5524
rhand -19.456 8.92939
rfingers 7.12502
rthumb 6.86499 -20.9393
lclavicle 4.45775e-014 1.11319e-014
lhumerus 41.0548 15.4614 76.9803
lradius 123.617
lwrist 37.62
lhand -22.3019 15.1243
lfingers 7.12502
lthumb 4.1172 45.0642
rfemur -38.178 6.76029 2.74589
rtibia 80.6223
rfoot -10.3684 -6.88882
rtoes -12.586
lfemur -13.5084 9.04118 -27.7625
ltibia 41.8215
lfoot -19.2357 1.82152
ltoes 7.77891
3161
root -0.989417 17.8932 2.55416 -4.75613 7.15415 5.39173
lowerback 14.9732 -3.00302 -6.67241
upperback 3.35471 -4.97008 0.139913
thorax -4.21513 -2.39213 4.79352
lowerneck -11.2197 -1.27788 -6.93564
upperneck 2.46232 -1.0695 5.71524
head 2.91169 -0.400749 3.10466
rclavicle 3.4837e-014 -3.57812e-015
rhumerus -20.7362 -21.893 -43.9266
rradius 97.9319
rwrist -25.7723
rhand -19.7592 9.15547
rfingers 7.12502
rthumb 6.57232 -20.7225
lclavicle 3.4837e-014 -3.57812e-015
lhumerus 41.1653 14.8826 77.6716
lradius 123.746
lwrist 37.326
lhand -22.3864 15.1231
lfingers 7.12502
lthumb 4.03561 45.0646
rfemur -39.4756 6.08464 2.66039
rtibia 82.1112
rfoot -10.3135 -6.56419
rtoes -12.3957
lfemur -13.8661 8.87504 -27.7566
ltibia 41.8672
lfoot -19.0971 1.62297
ltoes 7.90907
3162
root -0.9538 17.9042 2.52858 -4.61992 7.62571 5.28777
lowerback 14.9881 -3.12924 -6.73575
upperback 3.47624 -5.13364 0.278055
thorax -4.0537 -2.48241 4.99581
lowerneck -11.1247 -1.31301 -6.98458
upperneck 2.20859 -1.10852 5.71507
head 2.81008 -0.420392 3.10682
rclavicle -7.44449e-014 -1.47101e-014
rhumerus -20.9566 -22.578 -43.3441
rradius 96.8092
rwrist -26.0618
rhand -19.6788 9.65436
rfingers 7.12502
rthumb 6.64987 -20.2212
lclavicle -7.44449e-014 -1.47101e-014
lhumerus 41.3342 14.3391 78.3554
lradius 123.819
lwrist 37.0129
lhand -22.5638 15.1896
lfingers 7.12502
lthumb 3.86431 45.1343
rfemur -40.6796 5.39982 2.48373
rtibia 83.5879
rfoot -10.2045 -6.36948
rtoes -12.9372
lfemur -14.0915 8.67305 -27.8443
ltibia 41.8326
lfoot -18.9702 1.46169
ltoes 7.90918
3163
root -0.92079 17.9161 2.50439 -4.43583 8.06846 5.14161
lowerback 15.0738 -3.24118 -6.74226
upperback 3.52456 -5.27793 0.417617
thorax -4.01511 -2.5564 5.1741
lowerneck -11.1939 -1.33808 -7.03488
upperneck 2.14926 -1.13324 5.79152
head 2.807 -0.429262 3.14168
rclavicle 2.87244e-014 5.96354e-015
rhumerus -21.2517 -23.2762 -42.7837
rradius 95.6815
rwrist -26.3545
rhand -19.3185 9.96339
rfingers 7.12502
rthumb 6.99774 -19.9009
lclavicle 2.87244e-014 5.96354e-015
lhumerus 41.3358 13.7964 78.9071
lradius 123.826
lwrist 36.775
lhand -22.5609 15.0315
lfingers 7.12502
lthumb 3.86717 44.9762
rfemur -41.9314 4.78489 2.34455
rtibia 85.0432
rfoot -10.1833 -6.18179
rtoes -13.4735
lfemur -14.3457 8.40301 -27.8979
ltibia 41.7429
lfoot -18.8187 1.42487
ltoes 8.04197
3164
root -0.889448 17.929 2.47913 -4.30077 8.43167 4.88611
lowerback 15.3383 -3.34252 -6.61381
upperback 3.50106 -5.40146 0.577084
thorax -4.16266 -2.61059 5.31428
lowerneck -11.2893 -1.37519 -7.12765
upperneck 2.14644 -1.1712 5.92517
head 2.8312 -0.443135 3.20526
rclavicle -6.50026e-014 2.38542e-014
rhumerus -21.6154 -23.7923 -42.2278
rradius 94.5458
rwrist -26.2569
rhand -19.1418 9.98615
rfingers 7.12502
rthumb 7.16824 -19.8725
lclavicle -6.50026e-014 2.38542e-014
lhumerus 41.2675 13.2776 79.4869
lradius 123.928
lwrist 36.5745
lhand -22.4869 14.9164
lfingers 7.12502
lthumb 3.93855 44.8598
rfemur -43.1767 4.32153 2.34747
rtibia 86.5035
rfoot -10.2357 -5.99879
rtoes -14.1679
lfemur -14.562 8.15182 -27.8184
ltibia 41.6251
lfoot -18.6378 1.38335
ltoes 8.75386
3165
root -0.859573 17.9399 2.45161 -4.25263 8.79217 4.68718
lowerback 15.8486 -3.41562 -6.57381
upperback 3.43541 -5.51677 0.76508
thorax -4.47687 -2.65057 5.55813
lowerneck -11.5674 -1.40207 -7.36012
upperneck 2.46212 -1.18299 6.36108
head 2.67957 -0.417543 3.05765
rclavicle 7.8023e-014 -2.46493e-014
rhumerus -21.9584 -24.1569 -41.6245
rradius 93.3837
rwrist -25.742
rhand -18.7527 10.0262
rfingers 7.12502
rthumb 7.54384 -19.8193
lclavicle 7.8023e-014 -2.46493e-014
lhumerus 41.0862 12.8043 80.1133
lradius 124.125
lwrist 36.3597
lhand -22.5289 14.8002
lfingers 7.12502
lthumb 3.89807 44.7443
rfemur -44.3084 3.85951 2.28077
rtibia 87.9703
rfoot -10.346 -5.75073
rtoes -14.3196
lfemur -14.6658 7.91434 -27.7898
ltibia 41.4797
lfoot -18.4719 1.35179
ltoes 9.11689
